<svg width="200" height="40" viewBox="0 0 200 40" fill="none" xmlns="http://www.w3.org/2000/svg">
<rect width="200" height="40" fill="white"/>
<rect x="8" y="5" width="184" height="30" rx="8" fill="#F8E4FF"/>
<path d="M20.4678 21.1035V25H19.1553V15.0469H22.8262C23.9154 15.0469 24.7676 15.3249 25.3828 15.8809C26.0026 16.4368 26.3125 17.1729 26.3125 18.0889C26.3125 19.055 26.0094 19.8001 25.4033 20.3242C24.8018 20.8438 23.9382 21.1035 22.8125 21.1035H20.4678ZM20.4678 20.0303H22.8262C23.528 20.0303 24.0658 19.8662 24.4395 19.5381C24.8132 19.2054 25 18.7269 25 18.1025C25 17.5101 24.8132 17.0361 24.4395 16.6807C24.0658 16.3252 23.5531 16.1406 22.9014 16.127H20.4678V20.0303ZM30.3184 23.1475L32.041 17.6035H33.3945L30.4209 26.1416C29.9606 27.3721 29.2292 27.9873 28.2266 27.9873L27.9873 27.9668L27.5156 27.8779V26.8525L27.8574 26.8799C28.2858 26.8799 28.6185 26.7933 28.8555 26.6201C29.097 26.4469 29.2952 26.1302 29.4502 25.6699L29.7305 24.918L27.0918 17.6035H28.4727L30.3184 23.1475ZM36.2451 15.8125V17.6035H37.626V18.5811H36.2451V23.168C36.2451 23.4642 36.3066 23.6875 36.4297 23.8379C36.5527 23.9837 36.7624 24.0566 37.0586 24.0566C37.2044 24.0566 37.4049 24.0293 37.6602 23.9746V25C37.3275 25.0911 37.0039 25.1367 36.6895 25.1367C36.1243 25.1367 35.6982 24.9658 35.4111 24.624C35.124 24.2822 34.9805 23.7969 34.9805 23.168V18.5811H33.6338V17.6035H34.9805V15.8125H36.2451ZM40.374 18.499C40.9346 17.8109 41.6637 17.4668 42.5615 17.4668C44.1247 17.4668 44.9131 18.3486 44.9268 20.1123V25H43.6621V20.1055C43.6576 19.5723 43.5345 19.1781 43.293 18.9229C43.056 18.6676 42.6846 18.54 42.1787 18.54C41.7686 18.54 41.4085 18.6494 41.0986 18.8682C40.7887 19.0869 40.5472 19.374 40.374 19.7295V25H39.1094V14.5H40.374V18.499ZM46.4854 21.2334C46.4854 20.5088 46.6266 19.8571 46.9092 19.2783C47.1963 18.6995 47.5928 18.2529 48.0986 17.9385C48.609 17.624 49.1901 17.4668 49.8418 17.4668C50.849 17.4668 51.6624 17.8154 52.2822 18.5127C52.9066 19.21 53.2188 20.1374 53.2188 21.2949V21.3838C53.2188 22.1038 53.0798 22.751 52.8018 23.3252C52.5283 23.8949 52.1341 24.3392 51.6191 24.6582C51.1087 24.9772 50.5208 25.1367 49.8555 25.1367C48.8529 25.1367 48.0394 24.7881 47.415 24.0908C46.7952 23.3936 46.4854 22.4707 46.4854 21.3223V21.2334ZM47.7568 21.3838C47.7568 22.2041 47.946 22.8626 48.3242 23.3594C48.707 23.8561 49.2174 24.1045 49.8555 24.1045C50.498 24.1045 51.0085 23.8538 51.3867 23.3525C51.765 22.8467 51.9541 22.1403 51.9541 21.2334C51.9541 20.4222 51.7604 19.766 51.373 19.2646C50.9902 18.7588 50.4798 18.5059 49.8418 18.5059C49.2174 18.5059 48.7139 18.7542 48.3311 19.251C47.9482 19.7477 47.7568 20.4587 47.7568 21.3838ZM56.001 17.6035L56.042 18.5332C56.6071 17.8223 57.3454 17.4668 58.2568 17.4668C59.82 17.4668 60.6084 18.3486 60.6221 20.1123V25H59.3574V20.1055C59.3529 19.5723 59.2298 19.1781 58.9883 18.9229C58.7513 18.6676 58.3799 18.54 57.874 18.54C57.4639 18.54 57.1038 18.6494 56.7939 18.8682C56.484 19.0869 56.2425 19.374 56.0693 19.7295V25H54.8047V17.6035H56.001Z" fill="black"/>
</svg>
